<mxfile host="app.diagrams.net" modified="2023-10-11T09:48:05.087Z" agent="Mozilla/5.0 (Windows NT 10.0; Win64; x64) AppleWebKit/537.36 (KHTML, like Gecko) Chrome/117.0.0.0 Safari/537.36 Edg/117.0.2045.60" version="22.0.4" etag="dK7s84D6JkvQIUOCN2iF" type="github">
  <diagram name="第 1 页" id="L6CAdKAnMDqST6A49EDl">
    <mxGraphModel>
      <root>
        <mxCell id="0" />
        <mxCell id="1" parent="0" />
      </root>
    </mxGraphModel>
  </diagram>
</mxfile>
